<svg width="12" height="12" viewBox="0 0 12 12" fill="none" xmlns="http://www.w3.org/2000/svg">
<path d="M1 3C1 2.05719 1 1.58578 1.29289 1.29289C1.58578 1 2.05719 1 3 1C3.94281 1 4.41422 1 4.70711 1.29289C5 1.58578 5 2.05719 5 3V9C5 9.9428 5 10.4142 4.70711 10.7071C4.41422 11 3.94281 11 3 11C2.05719 11 1.58578 11 1.29289 10.7071C1 10.4142 1 9.9428 1 9V3Z" fill="black"/>
<path d="M7 3C7 2.05719 7 1.58578 7.2929 1.29289C7.5858 1 8.0572 1 9 1C9.9428 1 10.4142 1 10.7071 1.29289C11 1.58578 11 2.05719 11 3V9C11 9.9428 11 10.4142 10.7071 10.7071C10.4142 11 9.9428 11 9 11C8.0572 11 7.5858 11 7.2929 10.7071C7 10.4142 7 9.9428 7 9V3Z" fill="black"/>
</svg>
