<svg width="27" height="27" viewBox="0 0 27 27" fill="none" xmlns="http://www.w3.org/2000/svg">
<path fill-rule="evenodd" clip-rule="evenodd" d="M22.7419 2.68538L13.4516 14.5508L10.4096 11.0723C10.3127 10.9601 10.1945 10.8683 10.0619 10.802C9.92938 10.7356 9.78501 10.6962 9.63714 10.6858C9.48927 10.6755 9.34082 10.6945 9.20031 10.7417C9.0598 10.7889 8.93001 10.8634 8.81839 10.961C8.70678 11.0585 8.61553 11.1771 8.54991 11.31C8.48429 11.443 8.44558 11.5875 8.436 11.7354C8.42643 11.8834 8.44618 12.0317 8.49413 12.172C8.54207 12.3122 8.61726 12.4416 8.71538 12.5528L12.2063 16.5443C12.3697 16.7311 12.5725 16.8796 12.8 16.9791C13.0274 17.0787 13.2741 17.1267 13.5223 17.12C13.7705 17.1132 14.0142 17.0517 14.2359 16.94C14.4576 16.8282 14.6519 16.6689 14.805 16.4734L24.5138 4.07251C24.6048 3.95616 24.6721 3.82302 24.7117 3.68068C24.7514 3.53834 24.7626 3.38958 24.7447 3.24291C24.7268 3.09624 24.6802 2.95453 24.6076 2.82586C24.535 2.69719 24.4377 2.58409 24.3214 2.49301C24.205 2.40193 24.0719 2.33465 23.9295 2.29503C23.7872 2.2554 23.6385 2.2442 23.4918 2.26207C23.3451 2.27993 23.2034 2.32651 23.0747 2.39914C22.9461 2.47177 22.833 2.56904 22.7419 2.68538ZM22.5 12.375C22.2016 12.375 21.9155 12.4935 21.7045 12.7045C21.4935 12.9155 21.375 13.2016 21.375 13.5V20.3366C21.375 20.853 21.3514 20.9779 21.2827 21.1061C21.2437 21.182 21.182 21.2437 21.1061 21.2828C20.979 21.3503 20.853 21.375 20.3366 21.375H6.66337C6.147 21.375 6.02212 21.3503 5.89387 21.2828C5.818 21.2438 5.75623 21.182 5.71725 21.1061C5.64975 20.979 5.625 20.853 5.625 20.3366V6.18751C5.625 6.03832 5.68426 5.89525 5.78975 5.78976C5.89524 5.68427 6.03832 5.62501 6.1875 5.62501L15.75 5.62951C16.0484 5.62951 16.3345 5.51098 16.5455 5.3C16.7565 5.08902 16.875 4.80287 16.875 4.50451C16.875 4.20614 16.7565 3.91999 16.5455 3.70901C16.3345 3.49803 16.0484 3.37951 15.75 3.37951L6.1875 3.37501C5.44158 3.37501 4.72621 3.67132 4.19876 4.19877C3.67132 4.72621 3.375 5.44158 3.375 6.18751V20.3366C3.375 21.1916 3.46725 21.6698 3.73388 22.167C3.98588 22.6384 4.36163 23.0141 4.833 23.2661C5.33025 23.5328 5.80725 23.625 6.66337 23.625H20.3366C21.1916 23.625 21.6698 23.5328 22.167 23.2661C22.6395 23.0141 23.0152 22.6384 23.2672 22.167C23.5327 21.6698 23.625 21.1928 23.625 20.3366V13.5C23.625 13.2016 23.5065 12.9155 23.2955 12.7045C23.0845 12.4935 22.7984 12.375 22.5 12.375Z" fill="black"/>
</svg>
