<svg width="61" height="61" viewBox="0 0 61 61" fill="none" xmlns="http://www.w3.org/2000/svg">
<path d="M52.8243 54.095C52.9255 53.9 52.993 53.6919 52.9743 53.4631C52.8449 51.9875 52.8168 50.5044 52.7399 49.0213C52.7249 48.7044 52.6012 48.4213 52.4324 48.1775C52.2355 47.6919 51.7687 47.3394 51.2249 47.3206C51.2062 46.9494 51.193 46.58 51.1687 46.2069C51.1293 45.5994 51.1255 44.9863 51.1143 44.3788C51.0862 43.0644 51.0899 41.7538 51.0318 40.4413C50.9774 39.1138 50.848 37.7919 50.8124 36.4625C50.7768 35.0581 50.7149 33.6575 50.578 32.2606C50.4412 30.8638 50.2837 29.4669 50.1637 28.0663C50.0418 26.5944 49.8899 25.115 49.6818 23.6488C49.4662 22.1619 49.0668 20.7219 48.4218 19.3569C47.788 18.0313 47.1037 16.7319 46.1793 15.5844C45.3037 14.5006 44.2649 13.5969 43.1905 12.7156C42.0674 11.7913 40.933 10.8988 39.6618 10.1844C39.0074 9.81689 38.2893 9.55439 37.5955 9.28439C36.9843 9.05002 36.358 8.87002 35.713 8.75564C34.9968 8.63002 34.273 8.54939 33.5455 8.53252C33.4705 8.53064 33.3955 8.53064 33.3224 8.53064C32.6493 8.53064 31.9855 8.60002 31.3143 8.69189C30.7518 8.76877 30.1968 8.92439 29.6493 9.09314C29.4524 8.45939 29.218 7.82377 28.8599 7.27439C28.6218 6.90689 28.348 6.56189 28.0612 6.23002C27.7555 5.88127 27.3805 5.61127 27.013 5.33377C26.3943 4.86877 25.6443 4.57439 24.9318 4.29689C24.4068 4.08877 23.833 4.04189 23.2762 3.98377C23.0962 3.96314 22.9199 3.95377 22.7437 3.95377C22.3368 3.95377 21.9355 4.00064 21.5249 4.06814C20.8124 4.19002 20.1243 4.35689 19.4662 4.65877C18.7349 4.99064 18.0974 5.58689 17.5537 6.17377C17.0605 6.70252 16.6349 7.35502 16.3012 7.99439C15.973 8.62627 15.7893 9.32377 15.628 10.0119C15.3074 11.3769 15.1049 12.7906 15.058 14.1913C15.0149 15.47 15.0412 16.7563 15.0712 18.035C13.9499 18.8975 12.8455 19.7956 11.9774 20.9206C11.1243 22.025 10.498 23.3075 10.0799 24.635C9.28303 27.185 9.28865 29.8981 9.1199 32.5381C8.96428 32.7744 8.85178 33.0388 8.85178 33.3444C8.85178 34.1506 9.5399 34.8856 10.3668 34.8594C11.7093 34.8163 13.0537 34.7488 14.398 34.7019C14.4318 34.8575 14.4768 35.0094 14.548 35.165C14.803 35.7088 15.0637 36.2488 15.343 36.7775C15.7574 37.5594 16.4343 38.1744 17.1355 38.6919C17.833 39.2075 18.6149 39.6031 19.4568 39.8113C20.263 40.0119 21.1518 40.0456 21.9768 39.9669C22.6537 39.905 23.3305 39.7719 23.9755 39.56C24.613 39.35 25.258 39.1063 25.7999 38.7069C26.4018 38.2681 26.8874 37.7375 27.2643 37.0944C27.6562 36.425 27.913 35.6619 28.1718 34.9381C28.2074 34.835 28.1924 34.7319 28.2018 34.6269C28.3649 34.6231 28.528 34.6119 28.6912 34.61C29.5518 34.595 30.4124 34.6063 31.2693 34.6138C31.5355 34.6175 31.8055 34.6175 32.0755 34.6138C32.7243 34.6138 33.3712 34.61 34.0162 34.6494C34.2224 34.6625 34.4174 34.6194 34.5993 34.5463C34.708 34.5669 34.8093 34.6119 34.9237 34.6119C35.3887 34.6119 35.8387 34.4244 36.1687 34.0981C36.5137 33.7531 36.6468 33.335 36.6805 32.8569C36.7237 32.2813 36.6149 31.6756 36.5662 31.1038C36.5043 30.4269 36.4255 29.7538 36.3393 29.0806C36.1405 27.5375 35.9474 26 35.4168 24.5263C35.1355 23.7556 34.8449 22.9831 34.498 22.2369C34.213 21.6181 33.8287 21.0519 33.4499 20.4838C33.0074 19.8219 32.488 19.1731 31.8918 18.6481C31.3818 18.2038 30.8174 17.8231 30.2474 17.4556C30.2418 16.9081 30.2343 16.3606 30.238 15.8131C30.3112 15.8225 30.3862 15.8619 30.4574 15.8544C31.3274 15.7625 32.1824 15.7231 33.0524 15.815C33.568 15.8956 34.078 15.9894 34.5786 16.1263C35.1505 16.28 35.7055 16.4769 36.253 16.6963C36.9543 17.015 37.6087 17.4088 38.2293 17.8644C39.0862 18.6069 39.8568 19.4319 40.5674 20.315C41.0137 20.9206 41.4112 21.5413 41.7262 22.2275C42.2305 23.5456 42.5005 24.95 42.7312 26.3413C42.9093 27.8056 43.0255 29.2813 43.153 30.7513C43.2862 32.2813 43.3443 33.815 43.3949 35.3525C43.4455 36.875 43.4605 38.405 43.453 39.9275C43.4418 41.3919 43.3555 42.8544 43.3349 44.3188C43.3218 45.3369 43.3537 46.3531 43.4193 47.3675C43.2937 47.3675 43.168 47.3694 43.0405 47.3675C40.3255 47.3356 37.6124 47.3488 34.8937 47.36C30.9449 47.3713 26.9849 47.4219 23.0362 47.27C23.0212 47.27 23.0062 47.27 22.9893 47.27C22.738 47.27 22.5149 47.3675 22.3105 47.4988C21.6299 47.645 21.0824 48.23 21.0955 48.9519C21.1143 50.0281 21.1462 51.1044 21.1668 52.1806C21.178 52.6344 21.1855 53.0881 21.1987 53.5456C21.2137 54.1175 21.223 54.6988 21.3468 55.2594C21.5193 56.0525 22.423 56.5025 23.1712 56.2963C23.2368 56.2775 23.2818 56.2344 23.3437 56.2081C24.7237 56.2456 26.1037 56.2494 27.4837 56.2831C28.9387 56.315 30.388 56.3581 31.843 56.4088C33.8418 56.4763 35.8424 56.4556 37.8449 56.4331C38.8818 56.4219 39.9149 56.4106 40.9518 56.4106C41.8443 56.4106 42.7368 56.4181 43.6293 56.39C44.5049 56.3581 45.3824 56.2963 46.258 56.2569C48.0074 56.1781 49.7568 56.2569 51.5062 56.2569C52.3199 56.2569 53.0005 55.5763 53.0005 54.7625C53.0062 54.5244 52.9312 54.3013 52.8243 54.095ZM24.7499 35.0206C24.6224 35.2925 24.4855 35.5475 24.3205 35.795C24.1968 35.93 24.0674 36.0575 23.9305 36.1775C23.7018 36.3256 23.4655 36.455 23.2218 36.5713C22.7905 36.7269 22.3499 36.8506 21.8999 36.9406C21.4312 36.98 20.9699 36.9781 20.4993 36.935C20.2424 36.8844 19.9968 36.8188 19.7512 36.7344C19.3574 36.5394 18.9843 36.3181 18.6262 36.0631C18.4124 35.8813 18.2099 35.6919 18.0168 35.4856C17.8462 35.2269 17.7037 34.9513 17.5668 34.6719C18.283 34.6756 18.9993 34.6644 19.7155 34.67C21.2643 34.6888 22.8074 34.7375 24.3562 34.7413C24.5212 34.7413 24.688 34.7319 24.853 34.7281C24.8193 34.8256 24.7893 34.925 24.7499 35.0206ZM31.7062 24.0519C31.9649 24.6856 32.1993 25.325 32.4149 25.97C32.653 26.6731 32.7655 27.4175 32.8705 28.1506C33.0037 29.2531 33.0768 30.3669 33.1237 31.4788C33.0412 31.4788 32.9568 31.4731 32.8743 31.4731C32.4918 31.4731 32.1093 31.4788 31.7268 31.4825C31.0255 31.4863 30.3224 31.4938 29.6212 31.5181C28.1624 31.5725 26.7093 31.7094 25.2505 31.745C23.7205 31.7806 22.1868 31.7488 20.6568 31.7206C19.1474 31.6925 17.6362 31.7094 16.1249 31.745C14.878 31.775 13.633 31.7844 12.3862 31.7956C12.4105 31.3063 12.4368 30.8169 12.4499 30.3256C12.4743 29.4369 12.5155 28.5406 12.6055 27.65C12.7518 26.7388 12.9862 25.85 13.3255 24.9875C13.6743 24.2131 14.0905 23.4894 14.5893 22.8031C15.1874 22.1038 15.8699 21.5244 16.588 20.9525C16.7512 20.8288 16.9162 20.705 17.083 20.5813C17.4393 20.3113 17.713 20.0488 17.8349 19.6025C17.8424 19.5763 17.8349 19.5481 17.8405 19.5219C18.178 19.2163 18.4012 18.7906 18.388 18.3163C18.3262 16.2988 18.2455 14.2925 18.4705 12.2806C18.6037 11.3788 18.7762 10.4638 19.0837 9.60502C19.2674 9.22439 19.4924 8.86814 19.738 8.52502C19.9687 8.25877 20.2255 8.02252 20.4937 7.79752C20.6249 7.70752 20.7599 7.62502 20.9024 7.55189C21.373 7.38689 21.8568 7.26689 22.3462 7.18252C22.5899 7.17127 22.828 7.18064 23.068 7.20502C23.3362 7.25377 23.593 7.31939 23.8499 7.41127C24.3449 7.64189 24.8155 7.90252 25.2618 8.21564C25.5205 8.44064 25.7587 8.68252 25.9799 8.94502C26.1018 9.12502 26.2087 9.31064 26.3043 9.50377C26.5293 10.115 26.6905 10.7375 26.7955 11.3806C27.0468 13.6456 26.983 15.9313 26.9624 18.2056C26.9568 18.6763 27.1705 19.0981 27.4987 19.4C27.6393 19.6363 27.8155 19.8519 28.0612 20.0056C28.5487 20.3094 29.0455 20.6 29.5162 20.9281C29.833 21.2019 30.1199 21.5 30.388 21.8206C30.8887 22.5275 31.3462 23.2644 31.7062 24.0519ZM46.3555 47.0956C46.3649 47.1594 46.3743 47.225 46.3818 47.2906C46.3799 47.285 46.378 47.2775 46.3762 47.2719C46.3705 47.21 46.363 47.1519 46.3555 47.0956ZM46.3012 43.2181C46.3049 41.7463 46.3368 40.2763 46.3087 38.8081C46.2468 35.7369 46.063 32.6675 45.793 29.6094C45.6449 27.9463 45.5343 26.2756 45.2493 24.6275C45.1162 23.8569 44.9605 23.0938 44.7749 22.3344C44.5162 21.2694 44.0549 20.2606 43.4868 19.3288C43.0649 18.6331 42.5249 17.9825 41.9924 17.3713C41.5068 16.8125 40.9818 16.2763 40.423 15.7869C39.1818 14.7069 37.7268 13.9119 36.1724 13.3756C35.3437 13.0869 34.5018 12.9106 33.6337 12.7644C32.9455 12.6463 32.2668 12.5863 31.5824 12.5863C31.2112 12.5863 30.838 12.6031 30.4612 12.6388C30.3637 12.6481 30.2812 12.6781 30.1912 12.6969C30.1799 12.4944 30.1818 12.29 30.1668 12.0875C30.8924 11.8513 31.6143 11.6263 32.3662 11.5006C33.2624 11.405 34.1662 11.3975 35.0643 11.495C35.548 11.5663 36.0299 11.6563 36.4987 11.8063C36.9805 11.9638 37.4549 12.1344 37.9237 12.3219C38.983 12.8075 39.9449 13.4638 40.8674 14.1706C42.1405 15.1813 43.3649 16.2406 44.4018 17.495C45.1462 18.5488 45.7405 19.7169 46.2674 20.8906C46.4737 21.41 46.6649 21.935 46.8149 22.4731C46.978 23.045 47.0774 23.6263 47.1637 24.2131C47.2405 24.8563 47.2893 25.4975 47.3512 26.1444C47.4224 26.8681 47.5068 27.5919 47.578 28.3194C47.7187 29.7125 47.8874 31.1094 48.0205 32.5063C48.1499 33.8525 48.1612 35.2025 48.2005 36.5563C48.2399 37.9213 48.3337 39.2844 48.373 40.6494C48.4124 41.9131 48.4012 43.1769 48.4199 44.4369C48.4368 45.41 48.4949 46.3756 48.5455 47.345C47.8255 47.3544 47.1074 47.3563 46.3874 47.3638C46.3837 47.3488 46.3912 47.3356 46.3874 47.3206C46.258 45.9538 46.2937 44.585 46.3012 43.2181ZM47.3699 53.3694C45.9262 53.405 44.4862 53.5063 43.0387 53.525C41.5912 53.5438 40.1436 53.5363 38.6999 53.5438C37.1661 53.5513 35.6324 53.5906 34.0987 53.5719C33.1762 53.5606 32.2518 53.5438 31.3312 53.5025C30.4349 53.4631 29.5349 53.4594 28.6387 53.4444C27.133 53.4219 25.6312 53.3656 24.1293 53.3094C24.118 52.8688 24.118 52.43 24.1199 51.9931C24.1274 51.3575 24.1255 50.7219 24.1274 50.0881C26.6399 50.1369 29.1543 50.12 31.6649 50.1181C34.4305 50.1144 37.1943 50.1406 39.9599 50.1406C41.7918 50.1406 43.6255 50.2006 45.4574 50.1519C46.4624 50.1275 47.4618 50.0731 48.463 50.0506C48.9149 50.0394 49.3705 50.0431 49.8262 50.0431C49.9105 51.1325 50.0005 52.22 50.0755 53.3056C49.1737 53.3244 48.2718 53.345 47.3699 53.3694ZM28.798 23.0356C29.1862 23.5213 29.5687 24.0256 29.8349 24.59C30.328 25.6438 30.493 26.8363 30.688 27.9706C30.7855 28.5331 30.7105 29.0581 30.2924 29.4763C30.0037 29.765 29.608 29.93 29.2012 29.93C28.7905 29.93 28.3949 29.765 28.1062 29.4763C27.7968 29.1631 27.6955 28.8069 27.6562 28.385C27.6487 28.31 27.6393 28.235 27.6318 28.1581C27.523 27.47 27.3843 26.7669 27.148 26.1088C27.0037 25.8163 26.8312 25.5425 26.6418 25.2763C26.218 24.7756 25.7418 24.3388 25.2337 23.9206C24.928 23.6694 24.7724 23.1856 24.7724 22.805C24.7724 22.3869 24.9412 21.9838 25.2337 21.6894C25.528 21.395 25.9349 21.2244 26.353 21.2244C26.803 21.2244 27.1349 21.4119 27.4687 21.6894C27.9599 22.0963 28.3987 22.5369 28.798 23.0356Z" fill="#A8A29D"/>
</svg>
